PathFileType	4	(X/Y/Z)	pose_F01_0-78.trc
DataRate	CameraRate	NumFrames	NumMarkers	Units	OrigDataRate	OrigDataStartFrame	OrigNumFrames
30	30	8	21	m	30	58	78
Frame#	Time	CHip			RHip			RKnee			RAnkle			RBigToe			RSmallToe			RHeel			LHip			LKnee			LAnkle			LBigToe			LSmallToe			LHeel			Neck			Nose			RShoulder			RElbow			RWrist			LShoulder			LElbow			LWrist			
		X1	Y1	Z1	X2	Y2	Z2	X3	Y3	Z3	X4	Y4	Z4	X5	Y5	Z5	X6	Y6	Z6	X7	Y7	Z7	X8	Y8	Z8	X9	Y9	Z9	X10	Y10	Z10	X11	Y11	Z11	X12	Y12	Z12	X13	Y13	Z13	X14	Y14	Z14	X15	Y15	Z15	X16	Y16	Z16	X17	Y17	Z17	X18	Y18	Z18	X19	Y19	Z19	X20	Y20	Z20	X21	Y21	Z21	
58	1.9333333333333333	-0.3008261009559833	1.8306468984775044	-0.4325998427955317	-0.31090792839711057	1.8288696989418172	-0.37566147210646267	-0.3177656230256561	1.7111421733496994	-0.33880668344938786	-0.3199527397983467	1.5863185128881887	-0.3116063091368006	-0.2976843752843036	1.5575393546551992	-0.33816173107546244	-0.3020788513886881	1.5586192157119916	-0.3045274708818622	-0.33197630425555097	1.5803910204823564	-0.3074494104884595	-0.2936761005643212	1.8324997922272588	-0.48522765702000153	-0.31160119250731627	1.7139923105701802	-0.4476039516439575	-0.31545760044539434	1.6005190501243927	-0.4359837523689891	-0.2847152836226089	1.5734127338255937	-0.47569005811989135	-0.2900961540128606	1.578543484227378	-0.4930638686112552	-0.31854414059276875	1.5913706330966555	-0.4178179856517618	-0.2958678509760376	1.9765975647729621	-0.47050691291846697	-0.26355494266572477	2.0238034137868053	-0.5416287776424143	-0.298783573147968	1.9742391670436585	-0.3919764756540752	-0.3007376635310771	1.8937233759063823	-0.36882832766632123	-0.29747378387865847	1.828690682372125	-0.36694705009158585	-0.28539868345280484	1.9782988392746266	-0.5631016900431155	-0.289878184274053	1.9001516791171553	-0.5580687709847505	-0.2855555680594891	1.8365893313916388	-0.5466787433880259
59	1.9666666666666666	-0.3003961983484141	1.8300590263407717	-0.4376757948503559	-0.3075819031833652	1.8283775568393992	-0.3797599284970431	-0.31623816116408576	1.7105719736358482	-0.34043374782516045	-0.31999831506389026	1.5866163831844196	-0.31159281809443873	-0.29744627532289875	1.556620855585838	-0.3381696231522873	-0.30023980904248027	1.5566093633614504	-0.30601202587116627	-0.3320962555863436	1.5784926032020532	-0.30695994866242776	-0.29510282201304194	1.8315772954802074	-0.48834360176114966	-0.31126771766794503	1.7121380057300624	-0.45212338500842414	-0.3154990564198154	1.600705914042536	-0.43607733249339997	-0.2855003553857973	1.5720651303100819	-0.47896587202853225	-0.2898736185243138	1.5774425365833513	-0.4931269764299773	-0.31829208967952066	1.5897658360249611	-0.4180345012804496	-0.2979432689288454	1.9768122925975857	-0.4686158637914911	-0.2682538953288485	2.0357547951114787	-0.5335332773587641	-0.3034888267832293	1.975430897290909	-0.3828770789434505	-0.302315941744052	1.8921751014063137	-0.35772341858003315	-0.2967911383290359	1.8240761694824972	-0.3579086381876003	-0.28847135029077764	1.9794221723807603	-0.556063922427489	-0.28895198123623783	1.9002020068345298	-0.5633225016761834	-0.28715933494874757	1.8304864668649072	-0.5527909368502959
60	2.0	-0.3004808108957366	1.8316083718385638	-0.4381383098644844	-0.3067484999302103	1.8286189238699815	-0.3850621108504528	-0.31880739962477045	1.7106761753405546	-0.34692072784364136	-0.31824660398738014	1.587153487649411	-0.31356518490694585	-0.2975816516822095	1.557022068957797	-0.3381172171692169	-0.3021222437372267	1.556507397755909	-0.3039768062106834	-0.3271551216948757	1.5786359963744512	-0.3077370041614749	-0.2952729983564662	1.8318173190349898	-0.49687411641555035	-0.31124427832849455	1.712241676721877	-0.4523029529693037	-0.31507998260662884	1.5980486197386967	-0.43646949227753296	-0.285437166651855	1.5716174216667542	-0.4793410196858553	-0.2910437290902301	1.5755133445947689	-0.49609055864864937	-0.3162677911199151	1.5865781197805233	-0.4197859376403113	-0.29691875136763074	1.9778203033214075	-0.46539547516116425	-0.2712583425133777	2.038401922573271	-0.52719915220936	-0.3071733855446175	1.9752900592864364	-0.3785728177896939	-0.3018331971929835	1.8905410388519632	-0.3485608280366241	-0.29399250457712695	1.8221828682195451	-0.3475225765535001	-0.2915466375761505	1.9792563687790083	-0.5486583618100314	-0.2889024509309289	1.9026941688559946	-0.5637188244127441	-0.28734329270303405	1.8340228816145105	-0.5616556843940357
61	2.033333333333333	-0.2991523185892081	1.8327124665869694	-0.4436599592889842	-0.30464840937549115	1.8301498299140175	-0.38751193431164027	-0.31724201959836357	1.710252995037463	-0.34399719632675024	-0.32004944428611665	1.587097809345459	-0.3116247749282165	-0.29563894138870306	1.5570408195444252	-0.3402936092326206	-0.29865024725613565	1.5557070899865966	-0.30765573753470615	-0.33235331195686346	1.5777302806657325	-0.30645320414119986	-0.2960090416865543	1.8329952371610996	-0.500562931247958	-0.3090638924767096	1.7132134320386012	-0.4548096721371987	-0.31507001980961596	1.5978113243834566	-0.4364972713295537	-0.2854066958654962	1.5712432263909517	-0.4793839238694677	-0.29079112430876725	1.5765724431245816	-0.4966357845620255	-0.3179210936336747	1.587277395444746	-0.4182094811602823	-0.2969656285731259	1.977844291733819	-0.4653650033265757	-0.2772424101875751	2.040918880697037	-0.5210227054661402	-0.30735093695883364	1.9766264267191551	-0.378944096430855	-0.3045067300437476	1.891757588501637	-0.34153711692602295	-0.2982480575974564	1.8243649504592199	-0.33825680296288374	-0.2895094204495324	1.979315521505095	-0.5507275314107016	-0.29002096449285614	1.901751623829815	-0.5667348097053301	-0.28333007234941426	1.8357429603163884	-0.5663607381570797
62	2.066666666666667	-0.2994276468170502	1.8301764975795	-0.4433718003027779	-0.3049571639721344	1.8276448059977954	-0.3871798475011075	-0.31725413215227105	1.7077574766665502	-0.3434952451167556	-0.31833074427213687	1.5873898721729323	-0.31359723593971134	-0.2954855615326879	1.5562942522450611	-0.34015132741331366	-0.3001453184925067	1.5562985691380384	-0.30605055636431217	-0.33046764490247327	1.5773956855065716	-0.30852310178899356	-0.29224322497501953	1.8316406219699204	-0.5046162305310156	-0.30912602521522836	1.710701095018392	-0.45449319111575887	-0.315285958609134	1.5993839408219734	-0.43634783566974905	-0.2833723572419889	1.5711793506350027	-0.48143758007554005	-0.2891004637060062	1.5755808607862858	-0.49816619027242903	-0.31645886686785035	1.5875455925862572	-0.41984958446000104	-0.2989725709226876	1.976734106189634	-0.4632228362507625	-0.280321623365532	2.042058178348166	-0.5141780326360103	-0.3091826426120154	1.9741269139616004	-0.3763960978113977	-0.3065232100180431	1.8931684900886534	-0.33963408942215073	-0.2983495909787186	1.8257396096263163	-0.33827299420289025	-0.29359470100129337	1.9791397026081732	-0.546390635510077	-0.2899927397209799	1.9009329721379988	-0.5669441537057526	-0.2820733981896852	1.8322754973588986	-0.5715291343677978
63	2.1	-0.2969640897050176	1.8312448601768287	-0.4457711743511846	-0.30242680902821456	1.8300623707729544	-0.389688672447375	-0.3130789881272244	1.7072099205755895	-0.34799477009439217	-0.3181333639278066	1.5860034717697917	-0.3137779950458341	-0.2955718258272849	1.5567666515651686	-0.34021402222273733	-0.3001201098536928	1.556180158999317	-0.3060595117511326	-0.3304552762444225	1.5773644220015286	-0.3085255196569482	-0.28776534306377477	1.834277103346068	-0.5094748073124802	-0.30812480369118417	1.7105703840724296	-0.4598538533564878	-0.3134278181603723	1.5993570702822817	-0.43825925413587896	-0.28321083839932	1.57031681614666	-0.48140277803638565	-0.28895327168971563	1.574840689570812	-0.4981379953667534	-0.31640686091926035	1.5873452511844584	-0.4198613315610624	-0.29899986292316233	1.9766705036421885	-0.46327857959705404	-0.28223458042879174	2.0420117610547712	-0.5120988265324362	-0.3092880143487832	1.973983651630227	-0.3764421451648672	-0.30660000596728215	1.893086946421563	-0.3395306763432647	-0.3011502600745283	1.8249558460466488	-0.33060309327386866	-0.2915463359133452	1.9791958770686613	-0.5485968991117712	-0.289843875389716	1.899228830966433	-0.5667283196128471	-0.28043607408199794	1.8326802353977631	-0.5733032188366287
64	2.1333333333333333	-0.2970643551223421	1.832509014774573	-0.4460136343604017	-0.3025699990769438	1.8287293925939838	-0.3895769820524045	-0.30870621903245854	1.7087444566856547	-0.3578436073601454	-0.31838709572571267	1.5848001826301323	-0.313319217194133	-0.29553426458054477	1.5566628720670186	-0.34014674819257484	-0.29849415281319636	1.5549447253735795	-0.30748960421171495	-0.3325773469806274	1.5762011962804952	-0.30597692382948366	-0.2877611809082361	1.83412288259273	-0.5094378689394315	-0.3083384776601506	1.7119337755624486	-0.4598517272069925	-0.315085308481626	1.5980676981187967	-0.4364877487003774	-0.28440425532593144	1.5707227758369995	-0.4845830540792672	-0.29065968224511257	1.5759951378770165	-0.49661176865012246	-0.3176956909069013	1.5885911297364257	-0.41893546015221106	-0.30006150044354496	1.9767741154799603	-0.4663086944457097	-0.28226699835982955	2.043423817279001	-0.5125111576944902	-0.30925366680342	1.9739972560325976	-0.37651432163382254	-0.30665265641827877	1.8921041640700056	-0.33948271633547056	-0.299287494544764	1.8247304833295674	-0.33266000149754116	-0.29466154811000866	1.979241206749475	-0.5495303678448351	-0.29195959504191765	1.8985747439397034	-0.5645105730385569	-0.2802846045322743	1.8324176993637047	-0.573615382318397
65	2.1666666666666665	-0.29920600389367397	1.8326709629573847	-0.45252437932307404	-0.30370549925905155	1.8287179660523554	-0.3930074950617639	-0.30880915131928005	1.7114519861174586	-0.37199943457387386	-0.3183551799336638	1.5847853213443739	-0.31333608854824224	-0.2931635599552887	1.5556741067436153	-0.3472539657168975	-0.2981145756798933	1.5540639900220685	-0.312450175284018	-0.3296929004376558	1.577075688576573	-0.30467067855321756	-0.28882048864748	1.8342087590194984	-0.5127140793732075	-0.30738523444799476	1.7119312591969953	-0.4654006104680865	-0.31509559510822366	1.60058516776612	-0.4367998675951196	-0.28546694870961575	1.571619164326042	-0.4793832722040912	-0.29082009632319933	1.5765659051998466	-0.4966177459513495	-0.31805686189795934	1.5879355742491457	-0.4182301892214653	-0.298131893803886	1.9767966377173598	-0.46852787854278594	-0.2821552275306733	2.0445471597004845	-0.5124891003820397	-0.3084906006884921	1.9741516224547007	-0.3817504485504367	-0.3058608652519168	1.8907054666755534	-0.3445913328692187	-0.2981902583736752	1.8172368626606137	-0.342297309434564	-0.2926034200065824	1.979274977316186	-0.5517922296269094	-0.28988482123427994	1.9000794431247043	-0.5667643659667655	-0.2802658306518872	1.832083641122084	-0.5731649713286687
